<mxfile host="app.diagrams.net" modified="2024-01-18T14:26:52.352Z" agent="Mozilla/5.0 (X11; Ubuntu; Linux x86_64; rv:121.0) Gecko/20100101 Firefox/121.0" etag="DVSmX9Xt2VREnHrWbJwP" version="22.1.21" type="github">
  <diagram name="Seite-1" id="AbF66Z4FqYIoqUWiEQG1">
    <mxGraphModel dx="4134" dy="1846" grid="1" gridSize="10" guides="1" tooltips="1" connect="1" arrows="1" fold="1" page="1" pageScale="1" pageWidth="850" pageHeight="1100" math="0" shadow="0">
      <root>
        <mxCell id="0" />
        <mxCell id="1" parent="0" />
        <mxCell id="X_FHZQJDd6L3vYlnp2Od-12" value="" style="whiteSpace=wrap;html=1;aspect=fixed;fillColor=#dae8fc;strokeColor=#6c8ebf;" vertex="1" parent="1">
          <mxGeometry x="1110" y="310" width="670" height="670" as="geometry" />
        </mxCell>
        <mxCell id="X_FHZQJDd6L3vYlnp2Od-11" value="" style="whiteSpace=wrap;html=1;aspect=fixed;fillColor=#e1d5e7;strokeColor=#9673a6;" vertex="1" parent="1">
          <mxGeometry x="30" y="310" width="670" height="670" as="geometry" />
        </mxCell>
        <mxCell id="X_FHZQJDd6L3vYlnp2Od-10" style="edgeStyle=orthogonalEdgeStyle;rounded=0;orthogonalLoop=1;jettySize=auto;html=1;entryX=0.5;entryY=0;entryDx=0;entryDy=0;startArrow=classic;startFill=1;strokeWidth=10;" edge="1" parent="1" source="X_FHZQJDd6L3vYlnp2Od-1" target="X_FHZQJDd6L3vYlnp2Od-15">
          <mxGeometry relative="1" as="geometry" />
        </mxCell>
        <mxCell id="X_FHZQJDd6L3vYlnp2Od-1" value="&lt;font style=&quot;font-size: 28px;&quot;&gt;SchÃ¤fflerChat&lt;/font&gt;" style="whiteSpace=wrap;html=1;aspect=fixed;" vertex="1" parent="1">
          <mxGeometry x="280" y="320" width="260" height="260" as="geometry" />
        </mxCell>
        <mxCell id="X_FHZQJDd6L3vYlnp2Od-9" style="edgeStyle=orthogonalEdgeStyle;rounded=0;orthogonalLoop=1;jettySize=auto;html=1;strokeWidth=10;" edge="1" parent="1" source="X_FHZQJDd6L3vYlnp2Od-2" target="X_FHZQJDd6L3vYlnp2Od-1">
          <mxGeometry relative="1" as="geometry" />
        </mxCell>
        <mxCell id="X_FHZQJDd6L3vYlnp2Od-2" value="Actor" style="shape=umlActor;verticalLabelPosition=bottom;verticalAlign=top;html=1;outlineConnect=0;" vertex="1" parent="1">
          <mxGeometry x="365" y="20" width="120" height="130" as="geometry" />
        </mxCell>
        <mxCell id="X_FHZQJDd6L3vYlnp2Od-34" style="edgeStyle=orthogonalEdgeStyle;rounded=0;orthogonalLoop=1;jettySize=auto;html=1;entryX=0.25;entryY=0;entryDx=0;entryDy=0;strokeWidth=9;" edge="1" parent="1" source="X_FHZQJDd6L3vYlnp2Od-3" target="X_FHZQJDd6L3vYlnp2Od-33">
          <mxGeometry relative="1" as="geometry" />
        </mxCell>
        <mxCell id="X_FHZQJDd6L3vYlnp2Od-3" value="&lt;div style=&quot;font-size: 25px;&quot;&gt;&lt;font style=&quot;font-size: 25px;&quot;&gt;Skill&lt;/font&gt;&lt;/div&gt;&lt;div style=&quot;font-size: 25px;&quot;&gt;&lt;font style=&quot;font-size: 25px;&quot;&gt;GetKnowledge&lt;font style=&quot;font-size: 25px;&quot;&gt;&lt;br&gt;&lt;/font&gt;&lt;/font&gt;&lt;/div&gt;" style="whiteSpace=wrap;html=1;aspect=fixed;" vertex="1" parent="1">
          <mxGeometry x="470" y="810" width="160" height="160" as="geometry" />
        </mxCell>
        <mxCell id="X_FHZQJDd6L3vYlnp2Od-4" value="&lt;font style=&quot;font-size: 42px;&quot;&gt;KnowledgeGRAPH&lt;/font&gt;" style="ellipse;shape=cloud;whiteSpace=wrap;html=1;" vertex="1" parent="1">
          <mxGeometry x="1180" y="390" width="510" height="430" as="geometry" />
        </mxCell>
        <mxCell id="X_FHZQJDd6L3vYlnp2Od-13" value="&lt;font style=&quot;font-size: 29px;&quot;&gt;OnPremise&lt;/font&gt;" style="rounded=0;whiteSpace=wrap;html=1;" vertex="1" parent="1">
          <mxGeometry x="1110" y="190" width="670" height="110" as="geometry" />
        </mxCell>
        <mxCell id="X_FHZQJDd6L3vYlnp2Od-14" value="&lt;font style=&quot;font-size: 26px;&quot;&gt;CLOUD-AMZON/IRGENDWO&lt;/font&gt;" style="rounded=0;whiteSpace=wrap;html=1;" vertex="1" parent="1">
          <mxGeometry x="25" y="990" width="680" height="110" as="geometry" />
        </mxCell>
        <mxCell id="X_FHZQJDd6L3vYlnp2Od-16" style="edgeStyle=orthogonalEdgeStyle;rounded=0;orthogonalLoop=1;jettySize=auto;html=1;strokeWidth=10;" edge="1" parent="1" source="X_FHZQJDd6L3vYlnp2Od-15" target="X_FHZQJDd6L3vYlnp2Od-3">
          <mxGeometry relative="1" as="geometry" />
        </mxCell>
        <mxCell id="X_FHZQJDd6L3vYlnp2Od-15" value="Agent" style="whiteSpace=wrap;html=1;aspect=fixed;" vertex="1" parent="1">
          <mxGeometry x="130" y="770" width="160" height="160" as="geometry" />
        </mxCell>
        <mxCell id="X_FHZQJDd6L3vYlnp2Od-17" value="&lt;font style=&quot;font-size: 19px;&quot;&gt;was sind herasuforderungen in der awnendung aus den Branchen aerospace und manufacturing in den letzen 5 jahren&lt;/font&gt;" style="whiteSpace=wrap;html=1;aspect=fixed;fillColor=#f8cecc;strokeColor=#b85450;strokeWidth=4;" vertex="1" parent="1">
          <mxGeometry x="-800" y="330" width="290" height="290" as="geometry" />
        </mxCell>
        <mxCell id="X_FHZQJDd6L3vYlnp2Od-20" value="&lt;font style=&quot;font-size: 22px;&quot;&gt;MetaDataKnowledge Graph&lt;br&gt;&lt;/font&gt;" style="swimlane;whiteSpace=wrap;html=1;" vertex="1" parent="1">
          <mxGeometry x="-800" y="660" width="330" height="350" as="geometry" />
        </mxCell>
        <mxCell id="X_FHZQJDd6L3vYlnp2Od-18" value="Agent" style="whiteSpace=wrap;html=1;aspect=fixed;" vertex="1" parent="X_FHZQJDd6L3vYlnp2Od-20">
          <mxGeometry x="20" y="110" width="160" height="160" as="geometry" />
        </mxCell>
        <mxCell id="X_FHZQJDd6L3vYlnp2Od-29" style="edgeStyle=orthogonalEdgeStyle;rounded=0;orthogonalLoop=1;jettySize=auto;html=1;entryX=1;entryY=0.5;entryDx=0;entryDy=0;strokeWidth=9;" edge="1" parent="1" source="X_FHZQJDd6L3vYlnp2Od-21" target="X_FHZQJDd6L3vYlnp2Od-15">
          <mxGeometry relative="1" as="geometry" />
        </mxCell>
        <mxCell id="X_FHZQJDd6L3vYlnp2Od-21" value="&lt;div style=&quot;font-size: 25px;&quot;&gt;&lt;font style=&quot;font-size: 25px;&quot;&gt;Skill&lt;/font&gt;&lt;/div&gt;&lt;div style=&quot;font-size: 25px;&quot;&gt;&lt;font style=&quot;font-size: 25px;&quot;&gt;GetMetaData&lt;font style=&quot;font-size: 25px;&quot;&gt;&lt;br&gt;&lt;/font&gt;&lt;/font&gt;&lt;/div&gt;" style="whiteSpace=wrap;html=1;aspect=fixed;" vertex="1" parent="1">
          <mxGeometry x="470" y="660" width="160" height="160" as="geometry" />
        </mxCell>
        <mxCell id="X_FHZQJDd6L3vYlnp2Od-22" value="&lt;font style=&quot;font-size: 23px;&quot;&gt;GetKnoledge&lt;/font&gt;" style="swimlane;whiteSpace=wrap;html=1;startSize=20;" vertex="1" parent="1">
          <mxGeometry x="-430" y="660" width="330" height="350" as="geometry" />
        </mxCell>
        <mxCell id="X_FHZQJDd6L3vYlnp2Od-19" value="&lt;font style=&quot;font-size: 28px;&quot;&gt;SPARQL&lt;/font&gt;" style="whiteSpace=wrap;html=1;aspect=fixed;fillColor=#ffe6cc;strokeColor=#d79b00;strokeWidth=4;" vertex="1" parent="X_FHZQJDd6L3vYlnp2Od-22">
          <mxGeometry x="65" y="90" width="200" height="200" as="geometry" />
        </mxCell>
        <mxCell id="X_FHZQJDd6L3vYlnp2Od-28" value="&lt;font style=&quot;font-size: 23px;&quot;&gt;&lt;span style=&quot;background-color: rgb(153, 204, 255);&quot;&gt;Entra ID (Azure AD)&lt;/span&gt;&lt;br&gt;&lt;/font&gt;" style="rounded=0;whiteSpace=wrap;html=1;fillColor=#dae8fc;strokeColor=#6c8ebf;" vertex="1" parent="1">
          <mxGeometry x="30" y="240" width="670" height="60" as="geometry" />
        </mxCell>
        <mxCell id="X_FHZQJDd6L3vYlnp2Od-30" value="&lt;font style=&quot;font-size: 24px;&quot;&gt;Auto Gen Studio&lt;br&gt;&lt;/font&gt;" style="rounded=0;whiteSpace=wrap;html=1;rotation=-90;" vertex="1" parent="1">
          <mxGeometry x="-353.75" y="601.25" width="665" height="92.5" as="geometry" />
        </mxCell>
        <mxCell id="X_FHZQJDd6L3vYlnp2Od-31" style="edgeStyle=orthogonalEdgeStyle;rounded=0;orthogonalLoop=1;jettySize=auto;html=1;entryX=0.585;entryY=-0.011;entryDx=0;entryDy=0;entryPerimeter=0;strokeWidth=9;startArrow=classic;startFill=1;" edge="1" parent="1" source="X_FHZQJDd6L3vYlnp2Od-21" target="X_FHZQJDd6L3vYlnp2Od-33">
          <mxGeometry relative="1" as="geometry" />
        </mxCell>
        <mxCell id="X_FHZQJDd6L3vYlnp2Od-33" value="&lt;font style=&quot;font-size: 28px;&quot;&gt;API&lt;/font&gt;" style="rounded=0;whiteSpace=wrap;html=1;rotation=-90;" vertex="1" parent="1">
          <mxGeometry x="718.13" y="600.63" width="671.25" height="87.5" as="geometry" />
        </mxCell>
      </root>
    </mxGraphModel>
  </diagram>
</mxfile>
